<svg width="20" height="20" viewBox="0 0 20 20" fill="none" xmlns="http://www.w3.org/2000/svg">
<path d="M7.00011 7.30766V17.6922C7.00011 17.782 7.02894 17.8557 7.08661 17.9134C7.14428 17.9711 7.21803 17.9999 7.30786 17.9999H14.0001V14.9037C14.0001 14.646 14.0864 14.431 14.2589 14.2587C14.4312 14.0862 14.6462 13.9999 14.9039 13.9999H18.0001V7.30766C18.0001 7.21783 17.9713 7.14408 17.9136 7.08641C17.8559 7.02874 17.7822 6.99991 17.6924 6.99991H7.30786C7.21803 6.99991 7.14428 7.02874 7.08661 7.08641C7.02894 7.14408 7.00011 7.21783 7.00011 7.30766ZM5.50011 17.6922V7.29216C5.50011 6.79349 5.67928 6.37016 6.03761 6.02216C6.39594 5.67399 6.82444 5.49991 7.32311 5.49991H17.6924C18.191 5.49991 18.617 5.67649 18.9704 6.02966C19.3235 6.38299 19.5001 6.80899 19.5001 7.30766V14.0402C19.5001 14.2813 19.4533 14.5131 19.3596 14.7354C19.2661 14.9579 19.1373 15.1512 18.9731 15.3152L15.3154 18.9729C15.1514 19.1371 14.9581 19.2659 14.7356 19.3594C14.5133 19.4531 14.2815 19.4999 14.0404 19.4999H7.30786C6.80919 19.4999 6.38319 19.3233 6.02986 18.9702C5.67669 18.6168 5.50011 18.1908 5.50011 17.6922ZM0.525111 4.42291C0.431611 3.92424 0.528778 3.47491 0.816611 3.07491C1.10428 2.67491 1.49753 2.42816 1.99636 2.33466L12.2309 0.52491C12.7194 0.43141 13.161 0.531077 13.5559 0.82391C13.9507 1.11691 14.2052 1.50766 14.3194 1.99616L14.4751 2.79991C14.5328 3.04991 14.4939 3.24924 14.3586 3.39791C14.2234 3.54674 14.0629 3.63458 13.8771 3.66141C13.6911 3.68841 13.5144 3.65541 13.3471 3.56241C13.1799 3.46941 13.0643 3.29791 13.0001 3.04791L12.8251 2.21141C12.8123 2.14091 12.7738 2.08483 12.7096 2.04316C12.6456 2.00149 12.5751 1.98708 12.4981 1.99991L2.25986 3.81916C2.17003 3.83199 2.10269 3.87366 2.05786 3.94416C2.01303 4.01466 1.99694 4.09483 2.00961 4.18466L3.67311 13.6692C3.71028 13.8757 3.67311 14.0642 3.56161 14.2347C3.45011 14.4052 3.29119 14.5122 3.08486 14.5557C2.87203 14.5993 2.68128 14.5596 2.51261 14.4364C2.34411 14.3134 2.24128 14.1455 2.20411 13.9327L0.525111 4.42291Z" fill="#3D404B"/>
</svg>
