<svg width="46" height="36" viewBox="0 0 46 36" fill="none" xmlns="http://www.w3.org/2000/svg">
<rect x="5" width="36" height="36" rx="16" fill="#FCFBFD"/>
<g clip-path="url(#clip0_2_6552)">
<path d="M9.12159 18.3388H13.8308V20.9953H5.55087V18.8563L10.1738 11.5769H5.63712V8.92041H13.7445V11.0594L9.12159 18.3388Z" fill="#1E2026"/>
<path d="M20.6147 12.3704H23.2022V20.9953H20.6147V20.1846C20.0972 20.8861 19.275 21.2368 18.148 21.2368C17.228 21.2368 16.4575 20.9206 15.8365 20.2881C15.227 19.6556 14.9223 18.7816 14.9223 17.6661V12.3704H17.5097V17.2866C17.5097 17.7926 17.6477 18.1836 17.9237 18.4596C18.2112 18.7241 18.5735 18.8563 19.0105 18.8563C19.505 18.8563 19.896 18.7068 20.1835 18.4078C20.471 18.1088 20.6147 17.6661 20.6147 17.0796V12.3704Z" fill="#1E2026"/>
<path d="M32.8622 20.9953L32.2585 19.0978H27.7735L27.1698 20.9953H24.1511L28.2565 8.92041H31.7755L35.8809 20.9953H32.8622ZM28.6015 16.5103H31.4305L30.016 12.0771L28.6015 16.5103Z" fill="#1E2026"/>
<path d="M36.9106 12.1548C37.7449 11.5934 38.8362 11.5934 39.6705 12.1548V20.9953H36.9106V12.1548Z" fill="#1E2026"/>
<path d="M38.2877 6.76416C38.2877 6.76416 38.6387 8.56918 40.4439 8.92039C40.4439 8.92039 38.6387 9.2716 38.2877 11.0766C37.9366 9.2716 36.1314 8.92039 36.1314 8.92039C37.9366 8.56918 38.2877 6.76416 38.2877 6.76416Z" fill="#F9C94E"/>
<path d="M27.7372 23.8276C28.2121 23.8276 28.6161 23.9963 28.949 24.3336C29.2863 24.6709 29.455 25.0837 29.455 25.572C29.455 26.0602 29.2863 26.473 28.949 26.8103C28.6161 27.1477 28.2121 27.3163 27.7372 27.3163C27.1469 27.3163 26.6986 27.0722 26.3923 26.584V27.2365H25.9529V22.5759H26.3923V24.56C26.6986 24.0717 27.1469 23.8276 27.7372 23.8276ZM26.7718 26.5107C27.0248 26.7637 27.3355 26.8902 27.7039 26.8902C28.0723 26.8902 28.383 26.7637 28.636 26.5107C28.889 26.2533 29.0155 25.9404 29.0155 25.572C29.0155 25.2036 28.889 24.8929 28.636 24.6399C28.383 24.3824 28.0723 24.2537 27.7039 24.2537C27.3355 24.2537 27.0248 24.3824 26.7718 24.6399C26.5188 24.8929 26.3923 25.2036 26.3923 25.572C26.3923 25.9404 26.5188 26.2533 26.7718 26.5107ZM31.7236 23.8276C32.2163 23.8276 32.6135 24.0029 32.9153 24.3536C33.2216 24.6998 33.3747 25.1104 33.3747 25.5853C33.3747 25.6341 33.3703 25.7029 33.3614 25.7917H30.4386C30.483 26.129 30.625 26.3976 30.8647 26.5973C31.1088 26.7926 31.4084 26.8902 31.7635 26.8902C32.0165 26.8902 32.234 26.8392 32.416 26.7371C32.6024 26.6306 32.7422 26.493 32.8354 26.3243L33.2216 26.5507C33.0751 26.7859 32.8754 26.9724 32.6224 27.11C32.3694 27.2475 32.0809 27.3163 31.7569 27.3163C31.2331 27.3163 30.807 27.1521 30.4786 26.8237C30.1501 26.4952 29.9859 26.078 29.9859 25.572C29.9859 25.0749 30.1479 24.6598 30.4719 24.327C30.7959 23.9941 31.2131 23.8276 31.7236 23.8276ZM31.7236 24.2537C31.3774 24.2537 31.0866 24.358 30.8514 24.5666C30.6206 24.7708 30.483 25.0371 30.4386 25.3656H32.922C32.8776 25.0149 32.7422 24.742 32.5159 24.5467C32.2895 24.3514 32.0254 24.2537 31.7236 24.2537ZM35.7405 24.3336H34.7818V26.351C34.7818 26.5329 34.8173 26.6639 34.8883 26.7438C34.9593 26.8192 35.0659 26.8592 35.2079 26.8636C35.3499 26.8636 35.5275 26.8592 35.7405 26.8503V27.2365C35.2745 27.3075 34.9238 27.2742 34.6886 27.1366C34.4578 26.999 34.3424 26.7371 34.3424 26.351V24.3336H33.6433V23.9075H34.3424V23.1086L34.7818 22.9754V23.9075H35.7405V24.3336ZM39.1342 23.9075H39.5737V27.2365H39.1342V26.584C38.828 27.0722 38.3797 27.3163 37.7893 27.3163C37.3144 27.3163 36.9083 27.1477 36.5709 26.8103C36.238 26.473 36.0716 26.0602 36.0716 25.572C36.0716 25.0837 36.238 24.6709 36.5709 24.3336C36.9083 23.9963 37.3144 23.8276 37.7893 23.8276C38.3797 23.8276 38.828 24.0717 39.1342 24.56V23.9075ZM36.8905 26.5107C37.1435 26.7637 37.4542 26.8902 37.8226 26.8902C38.191 26.8902 38.5017 26.7637 38.7547 26.5107C39.0077 26.2533 39.1342 25.9404 39.1342 25.572C39.1342 25.2036 39.0077 24.8929 38.7547 24.6399C38.5017 24.3824 38.191 24.2537 37.8226 24.2537C37.4542 24.2537 37.1435 24.3824 36.8905 24.6399C36.6375 24.8929 36.511 25.2036 36.511 25.572C36.511 25.9404 36.6375 26.2533 36.8905 26.5107Z" fill="#1E2026"/>
</g>
<defs>
<clipPath id="clip0_2_6552">
<rect width="46" height="23" fill="white" transform="translate(0 6.5)"/>
</clipPath>
</defs>
</svg>
