<svg width="16" height="16" viewBox="0 0 16 16" fill="none" xmlns="http://www.w3.org/2000/svg">
<path d="M14.2855 15.1475L9.0515 9.91333C8.63483 10.2574 8.15566 10.5266 7.614 10.721C7.07233 10.9155 6.51198 11.0127 5.93296 11.0127C4.50865 11.0127 3.30323 10.5196 2.31671 9.53333C1.33018 8.54708 0.836914 7.34194 0.836914 5.91792C0.836914 4.49403 1.33004 3.28847 2.31629 2.30125C3.30254 1.31417 4.50768 0.820625 5.93171 0.820625C7.35559 0.820625 8.56115 1.31389 9.54837 2.30042C10.5355 3.28694 11.029 4.49236 11.029 5.91667C11.029 6.51181 10.9291 7.08021 10.7294 7.62188C10.5296 8.16354 10.263 8.63465 9.92962 9.03521L15.1636 14.2692L14.2855 15.1475ZM5.93296 9.76292C7.00671 9.76292 7.91615 9.39028 8.66129 8.645C9.40657 7.89986 9.77921 6.99042 9.77921 5.91667C9.77921 4.84292 9.40657 3.93347 8.66129 3.18833C7.91615 2.44306 7.00671 2.07042 5.93296 2.07042C4.85921 2.07042 3.94976 2.44306 3.20462 3.18833C2.45934 3.93347 2.08671 4.84292 2.08671 5.91667C2.08671 6.99042 2.45934 7.89986 3.20462 8.645C3.94976 9.39028 4.85921 9.76292 5.93296 9.76292ZM3.94587 6.54167V5.29167H7.92004V6.54167H3.94587Z" fill="#5B6170"/>
</svg>
