<svg width="16" height="16" viewBox="0 0 16 16" fill="none" xmlns="http://www.w3.org/2000/svg">
<path d="M14.2855 15.1475L9.0515 9.91335C8.63483 10.2574 8.15566 10.5266 7.614 10.7211C7.07233 10.9155 6.51198 11.0127 5.93296 11.0127C4.50865 11.0127 3.30323 10.5196 2.31671 9.53335C1.33018 8.5471 0.836914 7.34196 0.836914 5.91793C0.836914 4.49404 1.33004 3.28848 2.31629 2.30126C3.30254 1.31418 4.50768 0.820637 5.93171 0.820637C7.35559 0.820637 8.56115 1.3139 9.54837 2.30043C10.5355 3.28696 11.029 4.49237 11.029 5.91668C11.029 6.51182 10.9291 7.08022 10.7294 7.62189C10.5296 8.16355 10.263 8.63467 9.92962 9.03522L15.1636 14.2692L14.2855 15.1475ZM5.93296 9.76293C7.00671 9.76293 7.91615 9.39029 8.66129 8.64501C9.40657 7.89987 9.77921 6.99043 9.77921 5.91668C9.77921 4.84293 9.40657 3.93348 8.66129 3.18834C7.91615 2.44307 7.00671 2.07043 5.93296 2.07043C4.85921 2.07043 3.94976 2.44307 3.20462 3.18834C2.45934 3.93348 2.08671 4.84293 2.08671 5.91668C2.08671 6.99043 2.45934 7.89987 3.20462 8.64501C3.94976 9.39029 4.85921 9.76293 5.93296 9.76293ZM5.30796 8.16022V6.54168H3.68941V5.29168H5.30796V3.67314H6.55796V5.29168H8.1765V6.54168H6.55796V8.16022H5.30796Z" fill="#5B6170"/>
</svg>
